<svg xmlns="http://www.w3.org/2000/svg" viewBox="0 0 64 64">
  <defs>
    <linearGradient id="upArrow" x1="0" y1="1" x2="0" y2="0">
      <stop offset="0%" stop-color="#d97706" stop-opacity=".25"/>
      <stop offset="100%" stop-color="#fbbf24" stop-opacity=".7"/>
    </linearGradient>
  </defs>
  <!-- 云朵轮廓 -->
  <path d="M18 42 C11 42 6 38 6 33 C6 28 9 24 13 22 C13 18 17 16 21 16
           L21 14 C24 10 28 8 33 8 C38 8 41 12 43 16
           C46 12 50 14 52 18 C56 22 58 28 58 33
           C58 38 55 42 50 42 Z"
        fill="none" stroke="#d97706" stroke-width="1.8" stroke-dasharray="4 2" opacity=".5"/>
  <!-- 向上箭头 -->
  <line x1="32" y1="44" x2="32" y2="18" stroke="url(#upArrow)" stroke-width="2.5" stroke-linecap="round"/>
  <path d="M32 14 L26 22 L38 22 Z" fill="url(#upArrow)"/>
</svg>
