<svg xmlns="http://www.w3.org/2000/svg" viewBox="0 0 64 64">
  <!-- 文件夹 -->
  <path d="M8 18v28a3 3 0 0 0 3 3h42a3 3 0 0 0 3-3V24a3 3 0 0 0-3-3H30l-4-4H11a3 3 0 0 0-3 3z"
        fill="#ecf0f1"/>
  <path d="M8 24h48v22a3 3 0 0 1-3 3H11a3 3 0 0 1-3-3V24z" fill="#f8f9fa"/>
  <!-- 虚线文件 -->
  <rect x="20" y="28" width="24" height="16" rx="2" fill="none" stroke="#bdc3c7" stroke-width="1.5" stroke-dasharray="3 2"/>
  <!-- 加号 -->
  <line x1="32" y1="32" x2="32" y2="42" stroke="#bdc3c7" stroke-width="2" stroke-linecap="round"/>
  <line x1="27" y1="37" x2="37" y2="37" stroke="#bdc3c7" stroke-width="2" stroke-linecap="round"/>
</svg>
