<svg xmlns="http://www.w3.org/2000/svg" viewBox="0 0 64 64">
  <defs>
    <linearGradient id="bg" x1="0" y1="0" x2="0" y2="1">
      <stop offset="0%" stop-color="#fb923c"/>
      <stop offset="100%" stop-color="#d97706"/>
    </linearGradient>
    <linearGradient id="shine" x1="0" y1="0" x2="0" y2="0.45">
      <stop offset="0%" stop-color="#fff" stop-opacity="0.2"/>
      <stop offset="100%" stop-color="#fff" stop-opacity="0"/>
    </linearGradient>
  </defs>
  <!-- 背景 -->
  <rect x="1" y="1" width="62" height="62" rx="14" fill="url(#bg)"/>
  <rect x="1" y="1" width="62" height="30" rx="14" fill="url(#shine)"/>
  <!-- 后方文件 -->
  <path d="M8 12h18l6 6v28a3 3 0 0 1-3 3H11a3 3 0 0 1-3-3V12z" fill="#fff" opacity=".4"/>
  <path d="M26 12v6h6z" fill="#fff" opacity=".25"/>
  <line x1="13" y1="26" x2="27" y2="26" stroke="#fff" stroke-opacity=".3" stroke-width="1.5" stroke-linecap="round"/>
  <line x1="13" y1="31" x2="23" y2="31" stroke="#fff" stroke-opacity=".25" stroke-width="1.5" stroke-linecap="round"/>
  <!-- 前方文件 -->
  <path d="M25.5 19.5h18l6 6v28a3 3 0 0 1-3 3H28.5a3 3 0 0 1-3-3V19.5z" fill="#0001"/>
  <path d="M24 18h18l6 6v28a3 3 0 0 1-3 3H27a3 3 0 0 1-3-3V18z" fill="#fff" opacity=".92"/>
  <path d="M42 18v6h6z" fill="#e7e5e4"/>
  <line x1="29" y1="32" x2="45" y2="32" stroke="#d6d3d1" stroke-width="1.5" stroke-linecap="round"/>
  <line x1="29" y1="37" x2="40" y2="37" stroke="#d6d3d1" stroke-opacity=".6" stroke-width="1.5" stroke-linecap="round"/>
  <!-- 双向箭头 -->
  <line x1="30" y1="43" x2="42" y2="43" stroke="#b45309" stroke-width="2.2" stroke-linecap="round"/>
  <path d="M44 43l-4-3.2v6.4z" fill="#b45309"/>
  <line x1="44" y1="50" x2="32" y2="50" stroke="#b45309" stroke-width="2.2" stroke-linecap="round"/>
  <path d="M30 50l4-3.2v6.4z" fill="#b45309"/>
</svg>
