<svg xmlns="http://www.w3.org/2000/svg" viewBox="0 0 64 64">
  <defs>
    <linearGradient id="bg" x1="0" y1="0" x2="0" y2="1">
      <stop offset="0%" stop-color="#fb923c"/>
      <stop offset="100%" stop-color="#d97706"/>
    </linearGradient>
  </defs>
  <rect x="2" y="2" width="60" height="60" rx="16" fill="url(#bg)"/>
  <path d="M10 14h14l4 4v24a2 2 0 0 1-2 2H12a2 2 0 0 1-2-2V14z" fill="#fff" opacity=".4"/>
  <path d="M26 10h16l6 6v30a2 2 0 0 1-2 2H28a2 2 0 0 1-2-2V10z" fill="#fff" opacity=".92"/>
  <path d="M42 10v6h6z" fill="#e7e5e4"/>
  <line x1="32" y1="30" x2="44" y2="30" stroke="#b45309" stroke-width="2.5" stroke-linecap="round"/>
  <path d="M47 30l-4-3.5v7z" fill="#b45309"/>
  <line x1="44" y1="38" x2="32" y2="38" stroke="#b45309" stroke-width="2.5" stroke-linecap="round"/>
  <path d="M29 38l4-3.5v7z" fill="#b45309"/>
</svg>
