<svg xmlns="http://www.w3.org/2000/svg" viewBox="0 0 64 64">
  <!-- 后方文件 -->
  <path d="M8 12h18l6 6v28a3 3 0 0 1-3 3H11a3 3 0 0 1-3-3V12z" fill="#000" opacity=".35"/>
  <path d="M26 12v6h6z" fill="#000" opacity=".22"/>
  <!-- 前方文件 -->
  <path d="M24 18h18l6 6v28a3 3 0 0 1-3 3H27a3 3 0 0 1-3-3V18z" fill="#000" opacity=".85"/>
  <path d="M42 18v6h6z" fill="#000" opacity=".60"/>
  <!-- 右箭头 -->
  <line x1="30" y1="43" x2="42" y2="43" stroke="#fff" stroke-width="2" stroke-linecap="round"/>
  <path d="M44 43l-4-3v6z" fill="#fff"/>
  <!-- 左箭头 -->
  <line x1="44" y1="50" x2="32" y2="50" stroke="#fff" stroke-width="2" stroke-linecap="round"/>
  <path d="M30 50l4-3v6z" fill="#fff"/>
</svg>
